<svg viewBox="0 0 260 72" fill="none" xmlns="http://www.w3.org/2000/svg">
<path fill-rule="evenodd" clip-rule="evenodd" d="M13.7583 0.153214H10C4.47715 0.153214 0 4.63038 0 10.1532V62C0 67.5228 4.47715 72 10 72H69C71.5927 72 73.7244 70.0267 73.9753 67.5H13.431C10.9458 67.5 8.93103 65.4853 8.93103 63C8.93103 60.5147 10.9458 58.5 13.431 58.5H74V5.15321C74 2.39179 71.7614 0.153214 69 0.153214H18.9696V46.9596L46.4487 19.3734L41.3136 14.3026L60.1616 9.06519L55.2558 28.0703L50.164 23.0422L21.5864 51.7311C19.9583 53.3656 17.3186 53.3656 15.6905 51.7311C15.5587 51.5988 15.4696 51.4398 15.4231 51.2715C14.3991 50.3199 13.7583 48.9613 13.7583 47.4531V0.153214Z" fill="#629AA2"/>
<path d="M141.34 6.68H136.42V45.98H141.34V6.68ZM103.24 23.6C103.24 18.38 107.2 14.66 112.42 14.66C117.76 14.66 121.72 18.38 121.72 23.6C121.72 28.94 117.76 32.66 112.42 32.66C107.2 32.66 103.24 28.94 103.24 23.6ZM126.52 23.6C126.52 15.86 120.46 10.4 112.42 10.4C104.44 10.4 98.44 15.86 98.44 23.6C98.44 31.4 104.44 36.92 112.42 36.92C120.46 36.92 126.52 31.4 126.52 23.6ZM111.64 55.22V41.96H106.72V59.24H142.96V55.22H111.64ZM179.615 11.36H174.875V23.48C174.875 29.24 173.975 36.98 169.715 42.32C165.455 36.86 164.555 28.94 164.555 23.48V11.36H159.875V23.48C159.875 30.38 158.075 39.8 151.595 44.6L154.775 48.08C158.615 45.14 160.895 40.4 162.215 35.36C163.355 40.58 165.635 45.62 169.715 48.68V48.62V48.68C173.855 45.68 176.075 40.76 177.275 35.48C178.595 40.58 180.935 45.32 184.835 48.2L187.895 44.6C181.355 39.86 179.615 30.62 179.615 23.48V11.36ZM202.355 27.74H194.795V6.62H189.875V60.38H194.795V31.82H202.355V27.74ZM236.131 21.5V25.52H246.931V46.1H251.911V6.68H246.931V21.5H236.131ZM239.311 34.16C231.511 31.4 226.231 24.68 226.231 17.66V15.02H238.051V11H209.311V15.02H221.311V17.72C221.311 25.34 215.731 32.48 207.751 35.36L210.331 39.2C216.631 36.92 221.551 31.94 223.891 25.82C226.231 31.34 230.851 35.84 236.851 38L239.311 34.16ZM222.451 55.22V42.62H217.471V59.24H253.411V55.22H222.451Z" fill="#629AA1"/>
</svg>
