<svg viewBox="0 0 116 112" fill="none" xmlns="http://www.w3.org/2000/svg">
<path fill-rule="evenodd" clip-rule="evenodd" d="M21.5671 0.238342H10C4.47715 0.238342 0 4.71549 0 10.2383V102C0 107.523 4.47715 112 10 112H111C113.761 112 116 109.761 116 107V105H21C17.134 105 14 101.866 14 98C14 94.134 17.134 91 21 91H116V5.23834C116 2.47692 113.761 0.238342 111 0.238342H29.7362V73.0482L72.8115 30.1365L64.7619 22.2485L94.3074 14.1014L86.6171 43.6649L78.6354 35.8435L33.8381 80.4706C31.286 83.0131 27.1481 83.0131 24.5959 80.4706C24.3834 80.2589 24.2417 80.0034 24.1708 79.7333C22.569 78.2419 21.5671 76.1146 21.5671 73.7534V0.238342Z" fill="#629AA2"/>
</svg>
